<svg id="svg" version="1.1" xmlns="http://www.w3.org/2000/svg" xmlns:xlink="http://www.w3.org/1999/xlink" width="400" height="400" viewBox="0, 0, 400,400"><g id="svgg"><path id="path0" d="M275.800 267.350 C 272.143 268.543,266.888 272.092,266.145 273.870 C 265.844 274.591,265.054 275.951,264.390 276.893 C 261.522 280.962,261.887 290.537,265.104 295.600 C 266.328 297.526,268.508 299.921,269.414 300.333 C 269.916 300.562,271.177 301.398,272.216 302.191 C 273.254 302.984,274.396 303.593,274.752 303.545 C 275.108 303.497,276.467 303.689,277.772 303.972 C 281.212 304.718,287.893 303.637,289.800 302.025 C 290.240 301.653,291.463 300.910,292.518 300.374 C 295.483 298.867,297.324 296.400,299.213 291.400 C 300.863 287.034,300.876 286.950,300.223 284.753 C 299.880 283.599,299.600 281.989,299.600 281.176 C 299.600 278.453,294.771 270.806,292.646 270.164 C 292.181 270.023,291.440 269.591,291.000 269.204 C 287.932 266.504,280.987 265.657,275.800 267.350 " stroke="none" fill="#f76927" fill-rule="evenodd"></path><path id="path1" d="M194.600 95.948 C 191.701 96.677,190.000 97.409,190.000 97.928 C 190.000 98.093,189.415 98.571,188.700 98.991 C 186.975 100.005,183.200 103.586,183.200 104.209 C 183.200 104.480,182.930 104.926,182.600 105.200 C 182.270 105.474,182.000 105.990,182.000 106.346 C 182.000 106.702,181.208 108.615,180.240 110.597 C 179.273 112.579,177.843 115.550,177.063 117.200 C 176.284 118.850,175.298 120.830,174.872 121.600 C 173.763 123.607,172.114 127.231,171.778 128.400 C 171.620 128.950,170.459 131.470,169.198 134.000 C 167.001 138.409,162.832 147.019,159.611 153.800 C 158.775 155.560,157.954 157.449,157.787 157.999 C 157.620 158.548,156.946 159.988,156.288 161.199 C 154.466 164.554,151.200 171.045,151.200 171.310 C 151.200 171.440,149.741 174.573,147.957 178.273 C 146.173 181.973,144.282 185.935,143.756 187.077 C 143.229 188.220,142.618 189.265,142.399 189.401 C 142.179 189.536,142.000 189.919,142.000 190.250 C 142.000 190.582,140.686 193.586,139.079 196.926 C 137.472 200.267,135.732 203.990,135.212 205.200 C 134.335 207.241,132.864 210.232,127.935 220.000 C 126.880 222.090,126.014 223.930,126.009 224.088 C 125.998 224.443,124.138 228.704,123.516 229.800 C 122.655 231.315,120.449 235.806,119.192 238.600 C 118.499 240.140,116.888 243.560,115.612 246.200 C 112.898 251.816,110.391 257.143,109.398 259.400 C 108.737 260.903,108.292 261.824,106.447 265.500 C 106.033 266.325,105.307 267.900,104.833 269.000 C 104.360 270.100,103.798 271.315,103.586 271.700 C 103.374 272.085,103.027 272.715,102.816 273.100 C 96.566 284.488,99.035 296.325,108.933 302.428 C 112.507 304.631,119.722 305.544,122.938 304.200 C 123.728 303.870,124.802 303.600,125.325 303.600 C 127.410 303.600,136.000 296.146,136.000 294.336 C 136.000 294.050,136.898 292.012,137.996 289.808 C 139.093 287.604,141.175 283.370,142.621 280.400 C 144.068 277.430,145.390 274.730,145.560 274.400 C 147.558 270.519,153.465 257.704,153.782 256.563 C 153.909 256.103,154.436 255.330,154.951 254.846 L 155.889 253.965 205.844 253.988 C 237.372 254.003,256.971 253.862,258.976 253.606 C 270.948 252.078,279.767 238.691,275.437 228.620 C 274.290 225.953,274.000 225.139,274.000 224.588 C 274.000 224.272,273.316 222.886,272.480 221.507 C 271.644 220.128,270.670 218.370,270.315 217.600 C 269.960 216.830,269.104 214.959,268.413 213.443 C 267.722 211.926,265.301 206.886,263.033 202.243 C 260.765 197.599,258.664 193.080,258.365 192.200 C 258.065 191.320,257.410 189.929,256.910 189.108 C 256.409 188.287,256.000 187.480,256.000 187.314 C 256.000 186.992,254.354 183.512,253.108 181.200 C 252.694 180.430,252.074 179.170,251.733 178.400 C 251.053 176.870,247.121 168.630,243.906 162.000 C 242.786 159.690,241.643 157.260,241.366 156.600 C 240.688 154.980,234.019 140.900,229.999 132.600 C 228.720 129.960,226.993 126.180,226.161 124.200 C 225.328 122.220,224.449 120.330,224.206 120.000 C 223.964 119.670,223.564 118.950,223.318 118.400 C 219.657 110.218,215.752 102.932,214.275 101.525 C 208.487 96.015,201.836 94.129,194.600 95.948 M201.105 162.500 C 201.570 162.995,202.514 164.660,203.204 166.200 C 203.894 167.740,205.240 170.620,206.195 172.600 C 209.827 180.131,214.482 189.840,214.923 190.800 C 215.175 191.350,215.775 192.446,216.256 193.236 C 216.737 194.027,217.357 195.467,217.634 196.436 C 217.911 197.406,218.353 198.470,218.616 198.800 C 219.119 199.431,221.458 204.010,223.010 207.400 C 223.513 208.500,224.842 211.251,225.963 213.513 C 228.231 218.093,228.561 219.981,227.100 220.031 C 218.776 220.313,172.655 220.015,172.317 219.677 C 171.878 219.238,172.001 218.776,173.530 215.100 C 173.873 214.275,174.299 213.600,174.477 213.600 C 174.655 213.600,174.800 213.387,174.800 213.126 C 174.800 212.866,175.183 211.831,175.652 210.826 C 176.120 209.822,176.914 208.100,177.416 207.000 C 177.918 205.900,178.957 203.626,179.725 201.948 C 180.493 200.269,181.319 198.773,181.561 198.624 C 181.802 198.475,182.000 198.081,182.000 197.748 C 182.000 197.415,183.279 194.501,184.843 191.271 C 189.361 181.942,194.214 171.730,196.170 167.439 C 198.883 161.485,199.538 160.830,201.105 162.500 " stroke="none" fill="#1e92fa" fill-rule="evenodd"></path><path id="path2" d="M197.400 93.200 C 197.264 93.420,196.173 93.600,194.976 93.600 C 193.779 93.600,192.800 93.780,192.800 94.000 C 192.800 94.220,192.344 94.400,191.787 94.400 C 191.231 94.400,190.671 94.670,190.545 95.000 C 190.418 95.330,189.974 95.600,189.557 95.600 C 189.141 95.600,188.800 95.780,188.800 96.000 C 188.800 96.220,188.530 96.400,188.200 96.400 C 187.870 96.400,187.600 96.670,187.600 97.000 C 187.600 97.348,187.237 97.600,186.736 97.600 C 185.820 97.600,182.897 100.493,181.946 102.342 C 181.646 102.924,181.176 103.544,180.901 103.720 C 180.625 103.896,180.400 104.380,180.400 104.796 C 180.400 105.212,180.220 105.664,180.000 105.800 C 179.780 105.936,179.600 106.397,179.600 106.824 C 179.600 107.251,179.423 107.600,179.208 107.600 C 178.992 107.600,178.702 108.050,178.564 108.600 C 178.426 109.150,178.153 109.600,177.957 109.600 C 177.760 109.600,177.600 110.031,177.600 110.557 C 177.600 111.084,177.330 111.618,177.000 111.745 C 176.670 111.871,176.400 112.343,176.400 112.793 C 176.400 113.537,176.098 114.304,175.135 116.000 C 174.948 116.330,174.693 116.870,174.568 117.200 C 174.444 117.530,174.175 118.113,173.971 118.495 C 173.767 118.877,173.600 119.442,173.600 119.752 C 173.600 120.061,173.330 120.418,173.000 120.545 C 172.670 120.671,172.400 121.130,172.400 121.564 C 172.400 121.998,172.220 122.464,172.000 122.600 C 171.780 122.736,171.600 123.175,171.600 123.575 C 171.600 123.975,171.330 124.526,171.000 124.800 C 170.670 125.074,170.400 125.636,170.400 126.049 C 170.400 126.462,170.220 126.800,170.000 126.800 C 169.780 126.800,169.600 127.138,169.600 127.551 C 169.600 127.964,169.330 128.526,169.000 128.800 C 168.670 129.074,168.400 129.636,168.400 130.049 C 168.400 130.462,168.220 130.800,168.000 130.800 C 167.780 130.800,167.600 131.173,167.600 131.629 C 167.600 132.084,167.330 132.727,167.000 133.057 C 166.670 133.387,166.400 134.094,166.400 134.629 C 166.400 135.163,166.220 135.600,166.000 135.600 C 165.780 135.600,165.600 135.848,165.600 136.151 C 165.600 136.454,165.330 136.926,165.000 137.200 C 164.670 137.474,164.400 138.126,164.400 138.649 C 164.400 139.172,164.220 139.600,164.000 139.600 C 163.780 139.600,163.600 140.031,163.600 140.557 C 163.600 141.084,163.330 141.618,163.000 141.745 C 162.670 141.871,162.400 142.341,162.400 142.787 C 162.400 143.234,162.220 143.600,162.000 143.600 C 161.780 143.600,161.600 144.050,161.600 144.600 C 161.600 145.150,161.423 145.600,161.208 145.600 C 160.992 145.600,160.702 146.050,160.564 146.600 C 160.426 147.150,160.153 147.600,159.957 147.600 C 159.760 147.600,159.600 148.031,159.600 148.557 C 159.600 149.084,159.330 149.618,159.000 149.745 C 158.670 149.871,158.400 150.330,158.400 150.764 C 158.400 151.198,158.220 151.664,158.000 151.800 C 157.780 151.936,157.600 152.397,157.600 152.824 C 157.600 153.251,157.432 153.600,157.227 153.600 C 157.022 153.600,156.741 154.005,156.602 154.500 C 156.386 155.272,155.124 158.119,153.945 160.495 C 153.755 160.877,153.600 161.442,153.600 161.752 C 153.600 162.061,153.330 162.418,153.000 162.545 C 152.670 162.671,152.400 163.053,152.400 163.393 C 152.400 163.952,152.133 164.592,151.149 166.400 C 150.969 166.730,150.532 167.630,150.178 168.400 C 149.823 169.170,149.367 170.070,149.164 170.400 C 148.961 170.730,148.687 171.270,148.555 171.600 C 147.766 173.569,147.130 174.796,146.789 175.007 C 146.575 175.139,146.400 175.777,146.400 176.424 C 146.400 177.071,146.220 177.600,146.000 177.600 C 145.780 177.600,145.600 177.848,145.600 178.151 C 145.600 178.454,145.330 178.926,145.000 179.200 C 144.670 179.474,144.400 180.126,144.400 180.649 C 144.400 181.172,144.220 181.600,144.000 181.600 C 143.780 181.600,143.600 182.031,143.600 182.557 C 143.600 183.084,143.330 183.618,143.000 183.745 C 142.670 183.871,142.400 184.341,142.400 184.787 C 142.400 185.234,142.220 185.600,142.000 185.600 C 141.780 185.600,141.600 186.031,141.600 186.557 C 141.600 187.084,141.330 187.618,141.000 187.745 C 140.670 187.871,140.400 188.341,140.400 188.787 C 140.400 189.234,140.220 189.600,140.000 189.600 C 139.780 189.600,139.600 190.031,139.600 190.557 C 139.600 191.084,139.330 191.618,139.000 191.745 C 138.670 191.871,138.400 192.330,138.400 192.764 C 138.400 193.198,138.220 193.664,138.000 193.800 C 137.780 193.936,137.600 194.377,137.600 194.781 C 137.600 195.184,137.330 195.618,137.000 195.745 C 136.670 195.871,136.387 196.476,136.371 197.087 C 136.355 197.699,135.997 198.740,135.575 199.400 C 135.154 200.060,134.704 200.870,134.575 201.200 C 134.447 201.530,134.175 202.113,133.971 202.495 C 133.767 202.877,133.600 203.442,133.600 203.752 C 133.600 204.061,133.330 204.418,133.000 204.545 C 132.670 204.671,132.400 205.053,132.400 205.393 C 132.400 205.733,132.233 206.323,132.029 206.705 C 131.825 207.087,131.553 207.670,131.425 208.000 C 131.296 208.330,130.846 209.140,130.425 209.800 C 130.003 210.460,129.645 211.405,129.629 211.900 C 129.613 212.395,129.423 212.800,129.208 212.800 C 128.992 212.800,128.702 213.250,128.564 213.800 C 128.426 214.350,128.153 214.800,127.957 214.800 C 127.760 214.800,127.600 215.138,127.600 215.551 C 127.600 215.964,127.330 216.526,127.000 216.800 C 126.670 217.074,126.400 217.816,126.400 218.449 C 126.400 219.082,126.220 219.600,126.000 219.600 C 125.780 219.600,125.600 219.848,125.600 220.151 C 125.600 220.454,125.330 220.926,125.000 221.200 C 124.670 221.474,124.400 222.126,124.400 222.649 C 124.400 223.172,124.220 223.600,124.000 223.600 C 123.780 223.600,123.600 224.031,123.600 224.557 C 123.600 225.084,123.330 225.618,123.000 225.745 C 122.670 225.871,122.400 226.341,122.400 226.787 C 122.400 227.234,122.220 227.600,122.000 227.600 C 121.780 227.600,121.600 228.031,121.600 228.557 C 121.600 229.084,121.330 229.618,121.000 229.745 C 120.670 229.871,120.400 230.341,120.400 230.787 C 120.400 231.234,120.220 231.600,120.000 231.600 C 119.780 231.600,119.600 232.031,119.600 232.557 C 119.600 233.084,119.330 233.618,119.000 233.745 C 118.670 233.871,118.400 234.341,118.400 234.787 C 118.400 235.234,118.220 235.600,118.000 235.600 C 117.780 235.600,117.600 235.973,117.600 236.429 C 117.600 236.884,117.330 237.527,117.000 237.857 C 116.670 238.187,116.400 238.894,116.400 239.429 C 116.400 239.963,116.220 240.400,116.000 240.400 C 115.780 240.400,115.600 240.831,115.600 241.357 C 115.600 241.884,115.330 242.418,115.000 242.545 C 114.670 242.671,114.400 243.231,114.400 243.787 C 114.400 244.344,114.220 244.800,114.000 244.800 C 113.780 244.800,113.600 245.149,113.600 245.576 C 113.600 246.003,113.431 246.457,113.225 246.584 C 112.751 246.878,111.600 249.163,111.600 249.812 C 111.600 250.082,111.330 250.526,111.000 250.800 C 110.670 251.074,110.400 251.636,110.400 252.049 C 110.400 252.462,110.220 252.800,110.000 252.800 C 109.780 252.800,109.600 253.138,109.600 253.551 C 109.600 253.964,109.330 254.526,109.000 254.800 C 108.670 255.074,108.400 255.625,108.400 256.025 C 108.400 256.425,108.220 256.864,108.000 257.000 C 107.780 257.136,107.600 257.519,107.600 257.852 C 107.600 258.185,107.330 258.727,107.000 259.057 C 106.670 259.387,106.400 260.094,106.400 260.629 C 106.400 261.163,106.220 261.600,106.000 261.600 C 105.780 261.600,105.600 262.031,105.600 262.557 C 105.600 263.084,105.330 263.618,105.000 263.745 C 104.670 263.871,104.400 264.341,104.400 264.787 C 104.400 265.234,104.220 265.600,104.000 265.600 C 103.780 265.600,103.600 266.031,103.600 266.557 C 103.600 267.084,103.330 267.618,103.000 267.745 C 102.670 267.871,102.400 268.341,102.400 268.787 C 102.400 269.234,102.220 269.600,102.000 269.600 C 101.780 269.600,101.600 270.031,101.600 270.557 C 101.600 271.084,101.330 271.618,101.000 271.745 C 100.670 271.871,100.400 272.341,100.400 272.787 C 100.400 273.234,100.220 273.600,100.000 273.600 C 99.780 273.600,99.594 274.005,99.587 274.500 C 99.580 274.995,99.310 275.749,98.987 276.176 C 98.664 276.604,98.400 277.369,98.400 277.876 C 98.400 278.384,98.220 278.800,98.000 278.800 C 97.780 278.800,97.600 279.589,97.600 280.554 C 97.600 281.519,97.334 282.820,97.010 283.446 C 96.405 284.612,96.548 287.414,97.251 288.180 C 97.443 288.389,97.600 289.323,97.600 290.256 C 97.600 291.189,97.780 292.064,98.000 292.200 C 98.220 292.336,98.400 292.874,98.400 293.395 C 98.400 293.916,98.670 294.613,99.000 294.943 C 99.330 295.273,99.600 295.736,99.600 295.971 C 99.600 296.207,99.759 296.400,99.953 296.400 C 100.148 296.400,100.412 296.715,100.542 297.100 C 101.035 298.568,102.494 300.400,103.171 300.400 C 103.407 300.400,103.600 300.593,103.600 300.829 C 103.600 301.266,104.575 302.400,104.951 302.400 C 105.065 302.400,105.644 302.850,106.238 303.400 C 106.831 303.950,107.573 304.400,107.887 304.400 C 108.201 304.400,108.727 304.670,109.057 305.000 C 109.387 305.330,110.094 305.600,110.629 305.600 C 111.163 305.600,111.600 305.780,111.600 306.000 C 111.600 306.220,112.485 306.400,113.567 306.400 C 114.694 306.400,115.599 306.596,115.687 306.860 C 115.951 307.652,120.245 307.794,121.381 307.049 C 121.926 306.692,122.908 306.400,123.562 306.400 C 124.217 306.400,124.864 306.220,125.000 306.000 C 125.136 305.780,125.764 305.600,126.395 305.600 C 127.026 305.600,127.813 305.330,128.143 305.000 C 128.473 304.670,128.936 304.400,129.171 304.400 C 129.407 304.400,129.600 304.220,129.600 304.000 C 129.600 303.780,129.898 303.600,130.262 303.600 C 131.160 303.600,137.600 296.884,137.600 295.947 C 137.600 295.536,137.780 295.200,138.000 295.200 C 138.220 295.200,138.400 294.862,138.400 294.449 C 138.400 294.036,138.670 293.474,139.000 293.200 C 139.330 292.926,139.600 292.184,139.600 291.551 C 139.600 290.918,139.780 290.400,140.000 290.400 C 140.220 290.400,140.400 290.130,140.400 289.800 C 140.400 289.470,140.545 289.200,140.723 289.200 C 141.031 289.200,142.400 286.454,142.400 285.837 C 142.400 285.675,142.670 285.273,143.000 284.943 C 143.330 284.613,143.600 283.906,143.600 283.371 C 143.600 282.837,143.780 282.400,144.000 282.400 C 144.220 282.400,144.400 281.969,144.400 281.443 C 144.400 280.916,144.670 280.382,145.000 280.255 C 145.330 280.129,145.600 279.659,145.600 279.213 C 145.600 278.766,145.780 278.400,146.000 278.400 C 146.220 278.400,146.400 277.950,146.400 277.400 C 146.400 276.850,146.577 276.400,146.792 276.400 C 147.008 276.400,147.298 275.950,147.436 275.400 C 147.574 274.850,147.847 274.400,148.043 274.400 C 148.240 274.400,148.400 273.950,148.400 273.400 C 148.400 272.850,148.545 272.400,148.723 272.400 C 149.031 272.400,150.400 269.654,150.400 269.037 C 150.400 268.875,150.670 268.473,151.000 268.143 C 151.330 267.813,151.600 267.106,151.600 266.571 C 151.600 266.037,151.780 265.600,152.000 265.600 C 152.220 265.600,152.400 265.262,152.400 264.849 C 152.400 264.436,152.670 263.874,153.000 263.600 C 153.330 263.326,153.600 262.809,153.600 262.451 C 153.601 262.093,154.051 261.277,154.600 260.638 C 155.150 259.999,155.601 259.099,155.602 258.638 C 155.603 258.177,156.008 257.303,156.502 256.696 L 157.400 255.592 210.056 255.590 C 256.150 255.589,262.773 255.515,263.205 254.994 C 263.476 254.667,264.036 254.400,264.449 254.400 C 264.862 254.400,265.200 254.220,265.200 254.000 C 265.200 253.780,265.471 253.600,265.803 253.600 C 266.778 253.600,270.400 251.490,270.400 250.921 C 270.400 250.635,270.593 250.400,270.829 250.400 C 271.227 250.400,271.558 250.162,272.886 248.919 C 273.820 248.046,274.400 247.240,274.400 246.817 C 274.400 246.588,274.577 246.400,274.792 246.400 C 275.008 246.400,275.298 245.950,275.436 245.400 C 275.574 244.850,275.847 244.400,276.043 244.400 C 276.240 244.400,276.400 244.207,276.400 243.971 C 276.400 243.736,276.670 243.273,277.000 242.943 C 277.330 242.613,277.600 241.906,277.600 241.371 C 277.600 240.837,277.780 240.400,278.000 240.400 C 278.247 240.400,278.400 238.333,278.400 235.000 C 278.400 231.667,278.247 229.600,278.000 229.600 C 277.780 229.600,277.600 229.082,277.600 228.449 C 277.600 227.816,277.330 227.074,277.000 226.800 C 276.670 226.526,276.400 225.935,276.400 225.485 C 276.400 224.470,275.161 221.600,274.723 221.600 C 274.545 221.600,274.400 221.150,274.400 220.600 C 274.400 220.050,274.240 219.600,274.043 219.600 C 273.847 219.600,273.574 219.150,273.436 218.600 C 273.298 218.050,273.008 217.600,272.792 217.600 C 272.577 217.600,272.400 217.150,272.400 216.600 C 272.400 216.050,272.240 215.600,272.043 215.600 C 271.847 215.600,271.574 215.150,271.436 214.600 C 271.298 214.050,271.008 213.600,270.792 213.600 C 270.577 213.600,270.400 213.390,270.400 213.134 C 270.400 212.388,269.077 209.600,268.723 209.600 C 268.545 209.600,268.400 209.150,268.400 208.600 C 268.400 208.050,268.220 207.600,268.000 207.600 C 267.780 207.600,267.600 207.234,267.600 206.787 C 267.600 206.341,267.330 205.871,267.000 205.745 C 266.670 205.618,266.400 205.084,266.400 204.557 C 266.400 204.031,266.220 203.600,266.000 203.600 C 265.780 203.600,265.600 203.234,265.600 202.787 C 265.600 202.341,265.330 201.871,265.000 201.745 C 264.630 201.603,264.400 200.995,264.400 200.157 C 264.400 199.411,264.240 198.800,264.043 198.800 C 263.847 198.800,263.574 198.350,263.436 197.800 C 263.298 197.250,263.008 196.800,262.792 196.800 C 262.577 196.800,262.400 196.350,262.400 195.800 C 262.400 195.250,262.240 194.800,262.043 194.800 C 261.847 194.800,261.574 194.350,261.436 193.800 C 261.298 193.250,261.008 192.800,260.792 192.800 C 260.577 192.800,260.387 192.395,260.371 191.900 C 260.355 191.405,259.997 190.460,259.575 189.800 C 259.154 189.140,258.704 188.330,258.575 188.000 C 258.447 187.670,258.175 187.087,257.971 186.705 C 257.767 186.323,257.600 185.733,257.600 185.393 C 257.600 185.053,257.330 184.671,257.000 184.545 C 256.670 184.418,256.400 183.984,256.400 183.581 C 256.400 183.177,256.220 182.736,256.000 182.600 C 255.780 182.464,255.600 181.935,255.600 181.425 C 255.600 180.915,255.330 180.274,255.000 180.000 C 254.670 179.726,254.400 179.175,254.400 178.775 C 254.400 178.375,254.220 177.936,254.000 177.800 C 253.780 177.664,253.600 177.198,253.600 176.764 C 253.600 176.330,253.330 175.871,253.000 175.745 C 252.670 175.618,252.400 175.084,252.400 174.557 C 252.400 174.031,252.220 173.600,252.000 173.600 C 251.780 173.600,251.600 173.234,251.600 172.787 C 251.600 172.341,251.330 171.871,251.000 171.745 C 250.670 171.618,250.400 171.084,250.400 170.557 C 250.400 170.031,250.220 169.600,250.000 169.600 C 249.780 169.600,249.600 169.234,249.600 168.787 C 249.600 168.341,249.330 167.871,249.000 167.745 C 248.670 167.618,248.400 167.084,248.400 166.557 C 248.400 166.031,248.220 165.600,248.000 165.600 C 247.780 165.600,247.600 165.172,247.600 164.649 C 247.600 164.126,247.330 163.474,247.000 163.200 C 246.670 162.926,246.400 162.274,246.400 161.751 C 246.400 161.228,246.240 160.800,246.043 160.800 C 245.847 160.800,245.574 160.350,245.436 159.800 C 245.298 159.250,245.008 158.800,244.792 158.800 C 244.577 158.800,244.400 158.468,244.400 158.061 C 244.400 157.214,243.332 154.929,242.775 154.584 C 242.569 154.457,242.400 154.003,242.400 153.576 C 242.400 153.149,242.220 152.800,242.000 152.800 C 241.780 152.800,241.600 152.462,241.600 152.049 C 241.600 151.636,241.330 151.074,241.000 150.800 C 240.670 150.526,240.400 149.975,240.400 149.575 C 240.400 149.175,240.220 148.736,240.000 148.600 C 239.780 148.464,239.600 147.998,239.600 147.564 C 239.600 147.130,239.330 146.671,239.000 146.545 C 238.670 146.418,238.400 145.984,238.400 145.581 C 238.400 145.177,238.220 144.736,238.000 144.600 C 237.780 144.464,237.600 143.926,237.600 143.405 C 237.600 142.884,237.330 142.187,237.000 141.857 C 236.670 141.527,236.400 140.884,236.400 140.429 C 236.400 139.973,236.220 139.600,236.000 139.600 C 235.780 139.600,235.600 139.234,235.600 138.787 C 235.600 138.341,235.330 137.871,235.000 137.745 C 234.670 137.618,234.400 137.084,234.400 136.557 C 234.400 136.031,234.220 135.600,234.000 135.600 C 233.780 135.600,233.600 135.234,233.600 134.787 C 233.600 134.341,233.330 133.871,233.000 133.745 C 232.670 133.618,232.400 133.084,232.400 132.557 C 232.400 132.031,232.220 131.600,232.000 131.600 C 231.780 131.600,231.600 131.234,231.600 130.787 C 231.600 130.341,231.330 129.871,231.000 129.745 C 230.670 129.618,230.400 129.144,230.400 128.692 C 230.400 127.672,229.162 124.800,228.723 124.800 C 228.545 124.800,228.400 124.350,228.400 123.800 C 228.400 123.250,228.220 122.800,228.000 122.800 C 227.780 122.800,227.600 122.462,227.600 122.049 C 227.600 121.636,227.330 121.074,227.000 120.800 C 226.670 120.526,226.400 120.069,226.400 119.783 C 226.400 119.107,225.088 116.806,224.700 116.803 C 224.535 116.801,224.400 116.361,224.400 115.824 C 224.400 115.287,224.220 114.736,224.000 114.600 C 223.780 114.464,223.600 113.998,223.600 113.564 C 223.600 113.130,223.330 112.671,223.000 112.545 C 222.670 112.418,222.400 111.911,222.400 111.419 C 222.400 110.361,221.340 108.119,220.321 107.025 C 219.925 106.598,219.600 105.945,219.600 105.574 C 219.600 105.202,219.330 104.674,219.000 104.400 C 218.670 104.126,218.400 103.641,218.400 103.322 C 218.400 103.004,218.175 102.492,217.900 102.185 C 216.713 100.862,216.400 100.409,216.400 100.017 C 216.400 99.788,216.173 99.600,215.895 99.600 C 215.617 99.600,215.052 99.150,214.639 98.600 C 214.226 98.050,213.652 97.600,213.365 97.600 C 213.077 97.600,212.356 97.150,211.762 96.600 C 211.169 96.050,210.462 95.600,210.191 95.600 C 209.920 95.600,209.474 95.330,209.200 95.000 C 208.926 94.670,208.195 94.400,207.575 94.400 C 206.955 94.400,206.336 94.220,206.200 94.000 C 206.064 93.780,205.164 93.600,204.200 93.600 C 203.236 93.600,202.336 93.420,202.200 93.200 C 202.064 92.980,200.984 92.800,199.800 92.800 C 198.616 92.800,197.536 92.980,197.400 93.200 M205.236 95.899 C 207.267 96.291,211.629 99.007,214.275 101.525 C 215.752 102.932,219.657 110.218,223.318 118.400 C 223.564 118.950,223.964 119.670,224.206 120.000 C 224.449 120.330,225.328 122.220,226.161 124.200 C 226.993 126.180,228.720 129.960,229.999 132.600 C 234.019 140.900,240.688 154.980,241.366 156.600 C 241.643 157.260,242.786 159.690,243.906 162.000 C 247.121 168.630,251.053 176.870,251.733 178.400 C 252.074 179.170,252.694 180.430,253.108 181.200 C 254.354 183.512,256.000 186.992,256.000 187.314 C 256.000 187.480,256.409 188.287,256.910 189.108 C 257.410 189.929,258.065 191.320,258.365 192.200 C 258.664 193.080,260.765 197.599,263.033 202.243 C 265.301 206.886,267.722 211.926,268.413 213.443 C 269.104 214.959,269.960 216.830,270.315 217.600 C 270.670 218.370,271.644 220.128,272.480 221.507 C 273.316 222.886,274.000 224.272,274.000 224.588 C 274.000 225.139,274.290 225.953,275.437 228.620 C 279.767 238.691,270.948 252.078,258.976 253.606 C 256.971 253.862,237.372 254.003,205.844 253.988 L 155.889 253.965 154.951 254.846 C 154.436 255.330,153.909 256.103,153.782 256.563 C 153.465 257.704,147.558 270.519,145.560 274.400 C 145.390 274.730,144.068 277.430,142.621 280.400 C 141.175 283.370,139.093 287.604,137.996 289.808 C 136.898 292.012,136.000 294.050,136.000 294.336 C 136.000 296.146,127.410 303.600,125.325 303.600 C 124.802 303.600,123.728 303.870,122.938 304.200 C 119.722 305.544,112.507 304.631,108.933 302.428 C 99.035 296.325,96.566 284.488,102.816 273.100 C 103.027 272.715,103.374 272.085,103.586 271.700 C 103.798 271.315,104.360 270.100,104.833 269.000 C 105.307 267.900,106.033 266.325,106.447 265.500 C 108.292 261.824,108.737 260.903,109.398 259.400 C 110.391 257.143,112.898 251.816,115.612 246.200 C 116.888 243.560,118.499 240.140,119.192 238.600 C 120.449 235.806,122.655 231.315,123.516 229.800 C 124.138 228.704,125.998 224.443,126.009 224.088 C 126.014 223.930,126.880 222.090,127.935 220.000 C 132.864 210.232,134.335 207.241,135.212 205.200 C 135.732 203.990,137.472 200.267,139.079 196.926 C 140.686 193.586,142.000 190.582,142.000 190.250 C 142.000 189.919,142.179 189.536,142.399 189.401 C 142.618 189.265,143.229 188.220,143.756 187.077 C 144.282 185.935,146.173 181.973,147.957 178.273 C 149.741 174.573,151.200 171.440,151.200 171.310 C 151.200 171.045,154.466 164.554,156.288 161.199 C 156.946 159.988,157.620 158.548,157.787 157.999 C 157.954 157.449,158.775 155.560,159.611 153.800 C 162.832 147.019,167.001 138.409,169.198 134.000 C 170.459 131.470,171.620 128.950,171.778 128.400 C 172.114 127.231,173.763 123.607,174.872 121.600 C 175.298 120.830,176.284 118.850,177.063 117.200 C 177.843 115.550,179.273 112.579,180.240 110.597 C 181.208 108.615,182.000 106.702,182.000 106.346 C 182.000 105.990,182.270 105.474,182.600 105.200 C 182.930 104.926,183.200 104.480,183.200 104.209 C 183.200 103.586,186.975 100.005,188.700 98.991 C 189.415 98.571,190.000 98.093,190.000 97.928 C 190.000 96.058,199.501 94.793,205.236 95.899 M198.438 162.939 C 197.982 163.676,196.962 165.701,196.170 167.439 C 194.214 171.730,189.361 181.942,184.843 191.271 C 183.279 194.501,182.000 197.415,182.000 197.748 C 182.000 198.081,181.802 198.475,181.561 198.624 C 181.319 198.773,180.493 200.269,179.725 201.948 C 178.957 203.626,177.918 205.900,177.416 207.000 C 176.914 208.100,176.120 209.822,175.652 210.826 C 175.183 211.831,174.800 212.866,174.800 213.126 C 174.800 213.387,174.655 213.600,174.477 213.600 C 174.299 213.600,173.873 214.275,173.530 215.100 C 172.001 218.776,171.878 219.238,172.317 219.677 C 172.655 220.015,218.776 220.313,227.100 220.031 C 228.561 219.981,228.231 218.093,225.963 213.513 C 224.842 211.251,223.513 208.500,223.010 207.400 C 221.458 204.010,219.119 199.431,218.616 198.800 C 218.353 198.470,217.911 197.406,217.634 196.436 C 217.357 195.467,216.737 194.027,216.256 193.236 C 215.775 192.446,215.175 191.350,214.923 190.800 C 214.482 189.840,209.827 180.131,206.195 172.600 C 205.240 170.620,203.894 167.740,203.204 166.200 C 201.113 161.532,199.844 160.664,198.438 162.939 M200.400 165.357 C 200.400 165.884,200.670 166.418,201.000 166.545 C 201.330 166.671,201.600 167.141,201.600 167.587 C 201.600 168.034,201.780 168.400,202.000 168.400 C 202.220 168.400,202.400 168.837,202.400 169.371 C 202.400 169.906,202.670 170.613,203.000 170.943 C 203.330 171.273,203.600 171.916,203.600 172.371 C 203.600 172.827,203.780 173.200,204.000 173.200 C 204.220 173.200,204.400 173.538,204.400 173.951 C 204.400 174.364,204.670 174.926,205.000 175.200 C 205.330 175.474,205.600 176.036,205.600 176.449 C 205.600 176.862,205.760 177.200,205.957 177.200 C 206.153 177.200,206.426 177.650,206.564 178.200 C 206.702 178.750,206.992 179.200,207.208 179.200 C 207.423 179.200,207.613 179.605,207.629 180.100 C 207.645 180.595,208.003 181.540,208.425 182.200 C 208.846 182.860,209.296 183.670,209.425 184.000 C 209.553 184.330,209.825 184.913,210.029 185.295 C 210.233 185.677,210.400 186.324,210.400 186.732 C 210.400 187.141,210.850 187.999,211.400 188.638 C 211.949 189.277,212.399 190.081,212.400 190.424 C 212.400 190.766,212.664 191.396,212.987 191.824 C 213.310 192.251,213.580 193.005,213.587 193.500 C 213.594 193.995,213.760 194.400,213.957 194.400 C 214.153 194.400,214.426 194.850,214.564 195.400 C 214.702 195.950,214.992 196.400,215.208 196.400 C 215.423 196.400,215.600 196.670,215.600 197.000 C 215.600 197.330,215.780 197.600,216.000 197.600 C 216.220 197.600,216.400 198.037,216.400 198.571 C 216.400 199.106,216.670 199.813,217.000 200.143 C 217.330 200.473,217.600 200.908,217.600 201.110 C 217.600 201.514,218.433 203.140,219.593 205.000 C 220.005 205.660,220.355 206.611,220.371 207.113 C 220.387 207.614,220.670 208.129,221.000 208.255 C 221.330 208.382,221.600 208.916,221.600 209.443 C 221.600 209.969,221.780 210.400,222.000 210.400 C 222.220 210.400,222.400 210.766,222.400 211.213 C 222.400 211.659,222.670 212.129,223.000 212.255 C 223.330 212.382,223.600 212.916,223.600 213.443 C 223.600 213.969,223.780 214.400,224.000 214.400 C 224.220 214.400,224.400 214.766,224.400 215.213 C 224.400 215.659,224.670 216.129,225.000 216.255 C 225.330 216.382,225.600 216.916,225.600 217.443 L 225.600 218.400 200.000 218.400 C 174.884 218.400,174.400 218.385,174.400 217.620 C 174.400 217.191,174.625 216.696,174.900 216.520 C 175.537 216.112,176.400 214.579,176.400 213.854 C 176.400 213.548,176.670 213.074,177.000 212.800 C 177.330 212.526,177.600 211.874,177.600 211.351 C 177.600 210.828,177.780 210.400,178.000 210.400 C 178.220 210.400,178.400 210.130,178.400 209.800 C 178.400 209.470,178.568 209.200,178.773 209.200 C 178.978 209.200,179.260 208.795,179.398 208.300 C 179.757 207.018,180.517 205.488,181.100 204.871 C 181.375 204.581,181.600 203.906,181.600 203.371 C 181.600 202.837,181.780 202.400,182.000 202.400 C 182.220 202.400,182.400 201.969,182.400 201.443 C 182.400 200.916,182.670 200.382,183.000 200.255 C 183.330 200.129,183.600 199.659,183.600 199.213 C 183.600 198.766,183.780 198.400,184.000 198.400 C 184.220 198.400,184.400 197.969,184.400 197.443 C 184.400 196.916,184.670 196.382,185.000 196.255 C 185.330 196.129,185.600 195.670,185.600 195.236 C 185.600 194.802,185.780 194.336,186.000 194.200 C 186.220 194.064,186.400 193.681,186.400 193.348 C 186.400 193.015,186.670 192.473,187.000 192.143 C 187.330 191.813,187.600 191.186,187.600 190.750 C 187.600 190.314,188.050 189.295,188.600 188.486 C 189.150 187.677,189.600 186.606,189.600 186.107 C 189.600 185.608,189.780 185.200,190.000 185.200 C 190.220 185.200,190.400 184.851,190.400 184.424 C 190.400 183.997,190.569 183.543,190.775 183.416 C 191.332 183.071,192.400 180.786,192.400 179.939 C 192.400 179.532,192.535 179.199,192.700 179.197 C 193.152 179.194,194.400 176.840,194.400 175.991 C 194.400 175.582,194.569 175.143,194.775 175.016 C 195.388 174.636,196.400 172.348,196.400 171.339 C 196.400 170.771,196.637 170.400,197.000 170.400 C 197.373 170.400,197.600 170.022,197.600 169.400 C 197.600 168.850,197.780 168.400,198.000 168.400 C 198.220 168.400,198.400 167.969,198.400 167.443 C 198.400 166.916,198.670 166.382,199.000 166.255 C 199.330 166.129,199.600 165.659,199.600 165.213 C 199.600 164.766,199.780 164.400,200.000 164.400 C 200.220 164.400,200.400 164.831,200.400 165.357 M276.977 263.962 C 277.100 264.162,277.561 264.231,278.000 264.116 C 279.101 263.828,279.002 263.600,277.776 263.600 C 277.213 263.600,276.854 263.763,276.977 263.962 M283.800 264.000 C 283.936 264.220,284.317 264.400,284.647 264.400 C 284.977 264.400,285.136 264.220,285.000 264.000 C 284.864 263.780,284.483 263.600,284.153 263.600 C 283.823 263.600,283.664 263.780,283.800 264.000 M273.212 264.784 C 272.888 264.989,272.757 265.291,272.921 265.454 C 273.085 265.618,273.523 265.448,273.895 265.076 C 274.618 264.353,274.185 264.169,273.212 264.784 M288.000 264.757 C 288.000 264.954,288.285 265.224,288.633 265.357 C 289.611 265.733,289.708 265.651,289.057 265.000 C 288.377 264.320,288.000 264.233,288.000 264.757 M294.399 268.598 C 294.914 269.148,295.428 269.506,295.539 269.394 C 295.765 269.169,294.198 267.600,293.747 267.600 C 293.589 267.600,293.883 268.049,294.399 268.598 M263.867 271.867 C 263.484 272.249,263.538 272.800,263.957 272.800 C 264.154 272.800,264.418 272.530,264.545 272.200 C 264.779 271.590,264.353 271.381,263.867 271.867 M303.017 285.797 C 303.083 287.290,303.600 287.530,303.600 286.067 C 303.600 285.370,303.459 284.800,303.287 284.800 C 303.115 284.800,302.993 285.249,303.017 285.797 M302.400 288.400 C 302.400 288.840,302.580 289.200,302.800 289.200 C 303.020 289.200,303.200 288.840,303.200 288.400 C 303.200 287.960,303.020 287.600,302.800 287.600 C 302.580 287.600,302.400 287.960,302.400 288.400 M259.628 289.676 C 259.613 290.268,259.780 290.864,260.000 291.000 C 260.478 291.295,260.478 290.511,260.000 289.400 C 259.693 288.686,259.653 288.715,259.628 289.676 M301.812 291.317 C 301.641 291.712,301.613 292.147,301.751 292.284 C 302.157 292.690,302.484 292.120,302.297 291.331 C 302.132 290.633,302.110 290.632,301.812 291.317 M260.400 292.675 C 260.400 293.416,261.573 294.675,261.587 293.949 C 261.594 293.591,261.330 293.074,261.000 292.800 C 260.670 292.526,260.400 292.470,260.400 292.675 M300.874 294.198 C 300.623 294.749,300.581 295.200,300.782 295.200 C 301.175 295.200,301.784 293.651,301.501 293.368 C 301.407 293.274,301.125 293.647,300.874 294.198 M261.609 294.966 C 261.604 295.167,261.905 296.022,262.277 296.866 C 262.968 298.432,263.600 298.878,263.600 297.800 C 263.600 297.470,263.442 297.200,263.250 297.200 C 263.057 297.200,262.612 296.615,262.259 295.900 C 261.907 295.185,261.614 294.765,261.609 294.966 M266.800 301.829 C 266.800 302.270,267.908 303.159,268.152 302.914 C 268.289 302.778,268.400 302.877,268.400 303.133 C 268.400 303.390,268.715 303.595,269.100 303.589 C 269.616 303.582,269.511 303.400,268.700 302.897 C 268.095 302.522,267.600 302.076,267.600 301.907 C 267.600 301.738,267.420 301.600,267.200 301.600 C 266.980 301.600,266.800 301.703,266.800 301.829 M293.213 303.091 C 292.689 303.682,292.703 303.723,293.346 303.476 C 293.742 303.324,294.141 303.200,294.233 303.200 C 294.325 303.200,294.400 303.020,294.400 302.800 C 294.400 302.212,293.881 302.339,293.213 303.091 M278.008 306.795 C 277.265 307.255,278.562 307.600,281.033 307.600 C 282.291 307.600,283.200 307.422,283.200 307.176 C 283.200 306.943,283.020 306.864,282.800 307.000 C 282.580 307.136,282.400 307.055,282.400 306.820 C 282.400 306.540,282.128 306.563,281.609 306.888 C 281.012 307.260,280.529 307.273,279.650 306.941 C 279.009 306.699,278.270 306.633,278.008 306.795 " stroke="none" fill="#76b2e5" fill-rule="evenodd"></path><path id="path3" d="M279.400 265.200 C 278.960 265.389,277.869 265.556,276.976 265.572 C 276.084 265.587,275.004 265.864,274.576 266.187 C 274.149 266.510,273.395 266.780,272.900 266.787 C 272.405 266.794,272.000 266.939,272.000 267.109 C 272.000 267.279,271.325 267.774,270.500 268.209 C 268.974 269.014,264.800 272.874,264.800 273.481 C 264.800 273.664,264.350 274.477,263.800 275.286 C 263.250 276.095,262.800 277.015,262.800 277.330 C 262.800 277.645,262.530 278.126,262.200 278.400 C 261.834 278.704,261.600 279.580,261.600 280.649 C 261.600 281.612,261.420 282.400,261.200 282.400 C 260.969 282.400,260.800 283.659,260.800 285.376 C 260.800 287.013,260.980 288.464,261.200 288.600 C 261.420 288.736,261.600 289.627,261.600 290.581 C 261.600 291.753,261.794 292.389,262.200 292.545 C 262.530 292.671,262.800 293.231,262.800 293.787 C 262.800 294.344,262.980 294.800,263.200 294.800 C 263.420 294.800,263.600 294.999,263.600 295.242 C 263.600 296.387,269.203 302.400,270.269 302.400 C 270.561 302.400,270.800 302.580,270.800 302.800 C 270.800 303.020,271.048 303.200,271.351 303.200 C 271.654 303.200,272.126 303.470,272.400 303.800 C 272.674 304.130,273.380 304.400,273.969 304.400 C 274.558 304.400,275.226 304.586,275.452 304.812 C 276.009 305.369,286.543 305.372,286.728 304.815 C 286.804 304.587,287.379 304.400,288.005 304.400 C 288.631 304.400,289.413 304.130,289.743 303.800 C 290.073 303.470,290.599 303.200,290.913 303.200 C 291.227 303.200,291.969 302.750,292.562 302.200 C 293.156 301.650,293.743 301.200,293.868 301.200 C 294.163 301.200,297.200 298.163,297.200 297.868 C 297.200 297.743,297.650 297.156,298.200 296.562 C 298.750 295.969,299.200 295.172,299.200 294.791 C 299.200 294.410,299.470 293.874,299.800 293.600 C 300.130 293.326,300.400 292.710,300.400 292.231 C 300.400 291.752,300.598 291.162,300.840 290.920 C 301.434 290.326,301.426 280.275,300.832 280.077 C 300.594 279.998,300.400 279.430,300.400 278.816 C 300.400 278.201,300.130 277.474,299.800 277.200 C 299.470 276.926,299.200 276.364,299.200 275.951 C 299.200 275.538,299.065 275.200,298.900 275.199 C 298.735 275.199,297.970 274.259,297.200 273.112 C 295.187 270.110,294.709 269.600,293.911 269.600 C 293.520 269.600,293.200 269.420,293.200 269.200 C 293.200 268.980,292.930 268.800,292.600 268.800 C 292.270 268.800,291.999 268.665,291.997 268.500 C 291.994 268.094,289.678 266.800,288.955 266.800 C 288.636 266.800,288.271 266.530,288.145 266.200 C 287.976 265.762,287.286 265.600,285.581 265.600 C 284.297 265.600,283.136 265.420,283.000 265.200 C 282.703 264.720,280.517 264.720,279.400 265.200 M285.800 266.945 C 288.378 267.500,289.732 268.088,291.000 269.204 C 291.440 269.591,292.181 270.023,292.646 270.164 C 294.771 270.806,299.600 278.453,299.600 281.176 C 299.600 281.989,299.880 283.599,300.223 284.753 C 300.794 286.675,300.790 287.010,300.181 288.726 C 297.515 296.234,295.933 298.639,292.518 300.374 C 291.463 300.910,290.240 301.653,289.800 302.025 C 287.893 303.637,281.212 304.718,277.772 303.972 C 276.467 303.689,275.108 303.497,274.752 303.545 C 274.396 303.593,273.254 302.984,272.216 302.191 C 271.177 301.398,269.916 300.562,269.414 300.333 C 268.508 299.921,266.328 297.526,265.104 295.600 C 261.887 290.537,261.522 280.962,264.390 276.893 C 265.054 275.951,265.844 274.591,266.145 273.870 C 268.104 269.183,278.758 265.429,285.800 266.945 " stroke="none" fill="#cc7949" fill-rule="evenodd"></path><path id="path4" d="M278.730 263.803 C 278.619 263.914,277.734 264.111,276.764 264.240 C 275.794 264.369,274.601 264.727,274.114 265.037 C 273.627 265.347,272.877 265.600,272.447 265.600 C 272.018 265.600,271.607 265.735,271.533 265.900 C 271.460 266.065,270.590 266.722,269.600 267.361 C 268.610 267.999,267.656 268.764,267.480 269.061 C 267.304 269.357,266.914 269.600,266.613 269.600 C 266.312 269.600,265.651 270.275,265.145 271.100 C 264.639 271.925,263.907 272.947,263.517 273.371 C 263.128 273.794,262.705 274.469,262.578 274.871 C 262.450 275.272,262.178 275.600,261.973 275.600 C 261.768 275.600,261.600 275.991,261.600 276.469 C 261.600 276.946,261.346 277.621,261.036 277.969 C 260.726 278.316,260.421 279.230,260.357 280.000 C 260.294 280.770,260.079 281.620,259.881 281.889 C 259.143 282.889,260.047 291.667,261.004 292.800 C 261.283 293.130,261.630 293.961,261.775 294.646 C 261.921 295.331,262.391 296.269,262.820 296.729 C 263.249 297.190,263.600 297.934,263.600 298.383 C 263.600 298.832,263.735 299.201,263.900 299.202 C 264.065 299.203,264.775 299.743,265.478 300.402 C 266.181 301.061,266.869 301.600,267.007 301.600 C 267.510 301.600,268.354 302.714,268.081 303.017 C 267.926 303.188,268.020 303.202,268.289 303.047 C 268.564 302.889,269.085 303.124,269.478 303.583 C 269.863 304.032,270.569 304.400,271.046 304.400 C 271.524 304.400,272.018 304.670,272.145 305.000 C 272.271 305.330,272.842 305.600,273.414 305.600 C 273.985 305.600,274.766 305.768,275.150 305.973 C 275.533 306.178,276.556 306.446,277.423 306.568 C 278.291 306.690,279.496 306.903,280.102 307.042 C 280.753 307.191,281.449 307.091,281.802 306.798 C 282.131 306.525,282.400 306.466,282.400 306.666 C 282.400 306.866,282.764 307.057,283.209 307.091 C 283.653 307.124,283.913 306.982,283.785 306.776 C 283.588 306.458,286.524 306.201,286.939 306.500 C 287.015 306.555,287.395 306.336,287.783 306.014 C 288.171 305.692,288.962 305.365,289.541 305.288 C 290.532 305.155,293.241 303.410,293.533 302.717 C 293.607 302.542,293.853 302.400,294.081 302.400 C 295.955 302.400,301.600 294.572,301.600 291.973 C 301.600 291.574,301.780 291.136,302.000 291.000 C 302.220 290.864,302.400 290.043,302.400 289.176 C 302.400 288.309,302.570 287.600,302.778 287.600 C 303.197 287.600,303.037 285.166,302.435 282.400 C 302.220 281.410,301.871 279.796,301.660 278.813 C 301.448 277.829,301.078 276.959,300.838 276.879 C 300.597 276.799,300.400 276.298,300.400 275.767 C 300.400 275.235,300.241 274.800,300.047 274.800 C 299.852 274.800,299.594 274.422,299.474 273.960 C 299.349 273.484,299.064 273.237,298.817 273.389 C 298.577 273.538,298.406 273.511,298.437 273.330 C 298.607 272.353,298.330 271.600,297.800 271.600 C 297.470 271.600,297.245 271.375,297.300 271.100 C 297.355 270.825,297.175 270.645,296.900 270.700 C 296.625 270.755,296.400 270.530,296.400 270.200 C 296.400 269.870,296.161 269.600,295.870 269.600 C 295.578 269.600,294.917 269.150,294.400 268.600 C 293.883 268.050,293.304 267.600,293.114 267.600 C 292.923 267.600,292.397 267.256,291.945 266.835 C 290.951 265.909,287.984 264.790,285.800 264.518 C 284.920 264.408,284.029 264.156,283.820 263.959 C 283.423 263.584,279.083 263.450,278.730 263.803 M283.000 265.200 C 283.136 265.420,284.297 265.600,285.581 265.600 C 287.286 265.600,287.976 265.762,288.145 266.200 C 288.271 266.530,288.636 266.800,288.955 266.800 C 289.678 266.800,291.994 268.094,291.997 268.500 C 291.999 268.665,292.270 268.800,292.600 268.800 C 292.930 268.800,293.200 268.980,293.200 269.200 C 293.200 269.420,293.520 269.600,293.911 269.600 C 294.709 269.600,295.187 270.110,297.200 273.112 C 297.970 274.259,298.735 275.199,298.900 275.199 C 299.065 275.200,299.200 275.538,299.200 275.951 C 299.200 276.364,299.470 276.926,299.800 277.200 C 300.130 277.474,300.400 278.201,300.400 278.816 C 300.400 279.430,300.594 279.998,300.832 280.077 C 301.426 280.275,301.434 290.326,300.840 290.920 C 300.598 291.162,300.400 291.752,300.400 292.231 C 300.400 292.710,300.130 293.326,299.800 293.600 C 299.470 293.874,299.200 294.410,299.200 294.791 C 299.200 295.172,298.750 295.969,298.200 296.562 C 297.650 297.156,297.200 297.743,297.200 297.868 C 297.200 298.163,294.163 301.200,293.868 301.200 C 293.743 301.200,293.156 301.650,292.562 302.200 C 291.969 302.750,291.227 303.200,290.913 303.200 C 290.599 303.200,290.073 303.470,289.743 303.800 C 289.413 304.130,288.631 304.400,288.005 304.400 C 287.379 304.400,286.804 304.587,286.728 304.815 C 286.543 305.372,276.009 305.369,275.452 304.812 C 275.226 304.586,274.558 304.400,273.969 304.400 C 273.380 304.400,272.674 304.130,272.400 303.800 C 272.126 303.470,271.654 303.200,271.351 303.200 C 271.048 303.200,270.800 303.020,270.800 302.800 C 270.800 302.580,270.561 302.400,270.269 302.400 C 269.203 302.400,263.600 296.387,263.600 295.242 C 263.600 294.999,263.420 294.800,263.200 294.800 C 262.980 294.800,262.800 294.344,262.800 293.787 C 262.800 293.231,262.530 292.671,262.200 292.545 C 261.794 292.389,261.600 291.753,261.600 290.581 C 261.600 289.627,261.420 288.736,261.200 288.600 C 260.980 288.464,260.800 287.013,260.800 285.376 C 260.800 283.659,260.969 282.400,261.200 282.400 C 261.420 282.400,261.600 281.612,261.600 280.649 C 261.600 279.580,261.834 278.704,262.200 278.400 C 262.530 278.126,262.800 277.645,262.800 277.330 C 262.800 277.015,263.250 276.095,263.800 275.286 C 264.350 274.477,264.800 273.664,264.800 273.481 C 264.800 272.874,268.974 269.014,270.500 268.209 C 271.325 267.774,272.000 267.279,272.000 267.109 C 272.000 266.939,272.405 266.794,272.900 266.787 C 273.395 266.780,274.149 266.510,274.576 266.187 C 275.004 265.864,276.084 265.587,276.976 265.572 C 277.869 265.556,278.960 265.389,279.400 265.200 C 280.517 264.720,282.703 264.720,283.000 265.200 " stroke="none" fill="#d6b6ac" fill-rule="evenodd"></path></g></svg>